inDegrees=no
num_controls=7
num_derivatives=13
num_iterations=117
num_multipliers=7
num_parameters=0
num_slacks=7
num_states=26
objective=3.903400
objective_accelerations=0.535375
objective_balance=0.029927
objective_effort=0.459949
objective_height=2.836130
objective_ligament=0.042018
solver_duration=1269.331956
status=Solve_Succeeded
success=true
DataType=double
version=3
OpenSimVersion=4.4-2022-07-23-0e9fedc
endheader
time	/jointset/ground_pelvis/pelvis_tilt/value	/jointset/ground_pelvis/pelvis_tx/value	/jointset/ground_pelvis/pelvis_ty/value	/jointset/hip_l/hip_flexion_l/value	/jointset/hip_l/hip_adduction_l/value	/jointset/hip_l/hip_rotation_l/value	/jointset/back/lumbar_extension/value	/jointset/patellofemoral_l/patellar_flexion_l/value	/jointset/knee_l/knee_flexion_l/value	/jointset/knee_l/knee_adduction_l/value	/jointset/knee_l/knee_rotation_l/value	/jointset/ankle_l/ankle_angle_l/value	/jointset/subtalar_l/subtalar_angle_l/value	/jointset/ground_pelvis/pelvis_tilt/speed	/jointset/ground_pelvis/pelvis_tx/speed	/jointset/ground_pelvis/pelvis_ty/speed	/jointset/hip_l/hip_flexion_l/speed	/jointset/hip_l/hip_adduction_l/speed	/jointset/hip_l/hip_rotation_l/speed	/jointset/back/lumbar_extension/speed	/jointset/patellofemoral_l/patellar_flexion_l/speed	/jointset/knee_l/knee_flexion_l/speed	/jointset/knee_l/knee_adduction_l/speed	/jointset/knee_l/knee_rotation_l/speed	/jointset/ankle_l/ankle_angle_l/speed	/jointset/subtalar_l/subtalar_angle_l/speed	/forceset/tau_hip_flexion_l	/forceset/tau_hip_adduction_l	/forceset/tau_hip_rotation_l	/forceset/tau_knee_flexion_l	/forceset/tau_ankle_angle_l	/forceset/tau_subtalar_angle_l	/forceset/tau_lumbar_extension	lambda_cid13_p0	lambda_cid13_p1	lambda_cid13_p2	lambda_cid13_p3	lambda_cid13_p4	lambda_cid13_p5	lambda_cid14_p0	/jointset/ground_pelvis/pelvis_tilt/accel	/jointset/ground_pelvis/pelvis_tx/accel	/jointset/ground_pelvis/pelvis_ty/accel	/jointset/hip_l/hip_flexion_l/accel	/jointset/hip_l/hip_adduction_l/accel	/jointset/hip_l/hip_rotation_l/accel	/jointset/back/lumbar_extension/accel	/jointset/patellofemoral_l/patellar_flexion_l/accel	/jointset/knee_l/knee_flexion_l/accel	/jointset/knee_l/knee_adduction_l/accel	/jointset/knee_l/knee_rotation_l/accel	/jointset/ankle_l/ankle_angle_l/accel	/jointset/subtalar_l/subtalar_angle_l/accel	gamma_cid13_p0	gamma_cid13_p1	gamma_cid13_p2	gamma_cid13_p3	gamma_cid13_p4	gamma_cid13_p5	gamma_cid14_p0
1.5	-0.3555209311761493	-0.05029180428388166	0.7139973942975624	1.367704908841527	-0.24970903644958	-0.03923133325333716	-0.3624565322881538	1.029730054077974	1.029730054077971	0.007539544297075139	0.1745301966404665	0.2235061263343332	0.05934816859111127	0.3961087147891388	0.1399122369527298	0.7299065965589806	-2.540717924772863	-0.07186437562704996	-0.3954412170985119	0.5376945580542066	-2.660096922588556	-2.66009692258864	-0.4618757197727255	9.385070503061283e-05	-0.6577911152023945	-0.2517723564131226	-0.2129952838087724	-0.004109582885348379	-0.008929282596302957	-0.297906391860341	0.1194992955190732	0.0281871458113514	0.209776991849369	1.15084414770227	-11.46329124899647	0.3058723703757725	-9.872831282451637	-601.9342766343129	-65.14774864329475	-7.399869414390079	1.179098907173501	0.9470446364811508	-0.6133758738078681	-1.954631524944217	-0.1000748086120066	-1.062839015990573	2.109976379790214	-1.717081749907668	-1.717081749907684	-0.294521447929083	-0.08074840760010396	-1.16245792003117	-0.1538856295256784	-4.50926581258295e-08	4.38725050197761e-06	2.439427096075312e-06	6.90763038292861e-07	2.589980849210797e-07	2.459614746933496e-06	2.010943277397078e-07
1.51	-0.3515014645143371	-0.04884542038695376	0.7212641699484269	1.342202776239767	-0.2504335427513044	-0.04324269278185811	-0.3569748486413662	1.003046454622853	1.003046454622862	0.002907232242140537	0.1745310047128641	0.2168709431176503	0.05682197823761419	0.4077044750157358	0.1493516857984957	0.7232847504268515	-2.559387868933865	-0.07301063249975742	-0.4068213010965279	0.5585921301032808	-2.676256512863134	-2.676256512863161	-0.4645880111925003	7.009333573143614e-05	-0.6691156078099748	-0.253393638955328	-0.2062750065150765	-0.004800095508714141	-0.008719384980660617	-0.2933384655291629	0.1206333222571191	0.02782556939981855	0.2040230157103031	1.870017467039872	-11.67335894307715	0.6148478265632934	-10.15762453688174	-595.5161422752749	-64.98280001255171	-9.076970883746409	1.137814457250067	0.940588690401104	-0.7111117208378495	-1.775046952118282	-0.118493994843187	-1.173911823737779	2.072141437440733	-1.510476735387699	-1.510476735379054	-0.2591418897033562	0.03681368419617822	-1.097798783876019	-0.1562790378484992	-1.470818139030337e-08	4.113121962906337e-06	2.004957222795158e-06	6.380434115964968e-07	2.357017517852543e-07	2.132174769844753e-06	2.24807886094405e-07
1.52	-0.34736844027489	-0.0473050032652129	0.7284598225903857	1.316523569978306	-0.2511688301954044	-0.04736751689676984	-0.3512856905100933	0.9762122434511655	0.9762122434511689	-0.001752114507140534	0.1745315758286062	0.2101264442043402	0.05428156916443895	0.4188202303162252	0.1587188819153198	0.7156819947778268	-2.576132656712471	-0.07402060410218184	-0.4181341343757667	0.5791894549513461	-2.690219265903902	-2.690219265903872	-0.467282658640342	4.645939807224414e-05	-0.6796542545277371	-0.2546161003487548	-0.1995547292213948	-0.005490608132099604	-0.008509487365164299	-0.2887705391979895	0.1217673489951616	0.02746399298826029	0.1982690395712252	2.587390947610912	-11.89343711600735	0.9372109594693944	-10.48188128067631	-589.1225405681017	-64.87689435377681	-10.81871885894364	1.083097921951983	0.9325940906927762	-0.8095577771869862	-1.569600248464944	-0.07281775455525662	-1.049388872234914	2.049926939588419	-1.277714303145639	-1.277714303145637	-0.2909926535424189	-0.08072372127242587	-1.005288742067535	-0.07412139976982987	-9.871731707272779e-08	4.05130102259993e-06	2.638362915713034e-06	7.093978370700899e-07	1.3008193138521e-07	2.030298415020944e-06	1.714944665387429e-07
1.53	-0.3431267987098944	-0.04567140681231227	0.7355745779982503	1.290686959168172	-0.2519124475603448	-0.05160762245027855	-0.3453921934670122	0.9492497219092187	0.9492497219091967	-0.006434709492203807	0.1745323478676616	0.2032809121743864	0.05173233681653202	0.4294213255817156	0.1679734469012403	0.7071119176340054	-2.590845318149167	-0.07466407799445143	-0.429830769429906	0.5994350577655657	-2.701894176623093	-2.701894176623066	-0.4692547172595559	8.627784136107081e-05	-0.6893113696386675	-0.2551490479931616	-0.1927801630305905	-0.005784116280359353	-0.008484408683151545	-0.2840481322541049	0.1225562161330107	0.02679261880641308	0.1923990574618402	3.167838849344353	-11.93798058424167	1.212158215825524	-10.58780611392578	-582.7834264986295	-64.40013843103416	-12.57039212305977	1.035592951871622	0.9180477091102204	-0.9043413325610938	-1.370492916481507	-0.05540892370340898	-1.221498377461259	2.000642567418188	-1.053742373698712	-1.053742373699283	-0.152284131018192	0.0420458764175692	-0.9246165531868091	-0.03199807256303529	-3.042696659492234e-07	4.215056905981189e-06	4.406386397716308e-06	9.125809429742612e-07	-6.300659423306581e-08	2.168083408853627e-06	3.633988295332501e-08
1.54	-0.3387817506676404	-0.04394603270823882	0.7425989109047605	1.26471354297863	-0.2526615590076384	-0.05596303386540078	-0.3392984872727732	0.922182178676584	0.9221821786765676	-0.01113741939643354	0.1745326603412813	0.1963430702618088	0.04917995166702366	0.4395015257681711	0.1770744121498864	0.6975974945069334	-2.603493732594246	-0.07511942057236425	-0.4411953067023591	0.6192312851829664	-2.711223604038002	-2.711223604037979	-0.4713056424750591	-4.545374383277265e-05	-0.6981162310528383	-0.2552466606690428	-0.1860055968397669	-0.006077624428543697	-0.008459330000888401	-0.2793257253102104	0.1233450832708793	0.02612124462466245	0.1865290753524645	3.742351058156203	-11.9820220258057	1.487633303268548	-10.69828920565537	-576.5288796644755	-63.91828598010029	-14.32780384231957	0.9789189061450334	0.9018741432378687	-0.9984269738370508	-1.156750850141725	-0.03519149168372339	-0.9829693158973717	1.960051860224619	-0.8086176422893119	-0.8086176422893152	-0.3067659728002245	-0.1150337269694154	-0.8348380027156377	0.01294559393548862	-4.280406095020762e-07	4.308102324451461e-06	5.467885058867156e-06	1.032345850398201e-06	-1.910624625594456e-07	2.15050991756979e-06	-4.106359248490485e-08
1.55	-0.3343386654351074	-0.04213049234033204	0.7495235124589166	1.238624097824654	-0.2534137427970006	-0.06043090496469608	-0.3330092222349567	0.8950331452294571	0.8950331452294444	-0.01585994396748154	0.174530722151735	0.1893216974499691	0.04662942374846057	0.4490128322383029	0.1859986436039459	0.6871792671107881	-2.614036340587439	-0.07524956076233913	-0.4523239673490254	0.6385298453037695	-2.718188145320086	-2.718188145320056	-0.4731595360806551	-0.0003915531154249895	-0.7060004255140013	-0.2547462238016267	-0.1790599081690707	-0.006691859586914845	-0.008653565654865664	-0.2749571945159331	0.1243946958881829	0.02568987177876232	0.1805235010941552	4.391040644409542	-12.15370006001306	1.795360894250213	-10.84632078771953	-570.58212707453	-63.74365537669562	-16.08578978512845	0.9218213569410267	0.8826588002664475	-1.08510774541781	-0.949199838376331	0.007013122509654688	-1.169774156523618	1.900976526497159	-0.5811197680787987	-0.5811197680778494	-0.1178884883879381	-0.002910719400452719	-0.7413288899035706	0.08412010415524873	-4.575851512689979e-07	4.319676989872123e-06	5.71534425251417e-06	1.055998485660139e-06	-2.441893996582103e-07	1.953936432564757e-06	-5.192774766659558e-08
1.56	-0.3298035501699746	-0.04022671742712944	0.7563396143145283	1.212439989777854	-0.254165440307231	-0.06500845461394121	-0.3265297279082345	0.8678263168901162	0.8678263168901269	-0.02059964496137482	0.1745236204324352	0.1822262589491016	0.04408700567277374	0.4579075322881874	0.1947213212090466	0.6758975547980672	-2.622426311159365	-0.07502216474576877	-0.4631310166945922	0.6572771429641359	-2.722782582478602	-2.722782582478566	-0.4747409270441955	-0.001078159572864089	-0.7129293688586406	-0.2536246920937899	-0.1721142194983621	-0.007306094745238339	-0.00884780130869996	-0.2705886637216489	0.1254443085055001	0.02525849893292219	0.1745179268358499	5.032347136607375	-12.32132874001285	2.099287882847523	-10.98610919983584	-564.732151660041	-63.54868515773323	-17.83816799196808	0.8555976220955772	0.8615633734461811	-1.171123957152198	-0.7262233658884468	0.03631574962512444	-0.9186470556778941	1.849799368137266	-0.3345968175757049	-0.3345968175757041	-0.2522654443891339	-0.1831351441382414	-0.6437877794108302	0.1371645620193838	-4.830278656729316e-07	4.287826656469253e-06	5.893500885340697e-06	1.069072190731698e-06	-2.944596566932046e-07	1.732050134321913e-06	-6.171113171381787e-08
1.57	-0.3251826610518184	-0.03823682524034538	0.7630386877580885	1.186182981348155	-0.2549128640237577	-0.06969236053703913	-0.3198657585488419	0.8405856517078187	0.8405856517078216	-0.0253536265067557	0.17450804018957	0.1750664826723686	0.04155911473285525	0.4661590893582325	0.2032113709907647	0.6637846354120817	-2.628593779741864	-0.07439828026867966	-0.4735752860624624	0.6753981775725705	-2.724935354569296	-2.72493535456927	-0.4760200142327154	-0.002083322114725704	-0.7188586048849571	-0.2518513509713137	-0.1650494013403669	-0.007813804307709487	-0.009272734351346198	-0.2663581741745868	0.1265732226192737	0.02478775925740656	0.1683927980801301	5.680451826216044	-12.46673109045572	2.392459149800017	-11.08397363182893	-559.1001359476583	-63.32219612028646	-19.57561034111171	0.7932397576791508	0.8360777742184108	-1.251324313921698	-0.5048018676769919	0.08379177377763515	-1.096346272241517	1.775472805901601	-0.09333749329819381	-0.09333749329970216	-0.05954166587893503	-0.06713668427210355	-0.5422078056084785	0.2113691332861098	-5.033432958731305e-07	4.201695074536972e-06	5.985029317141615e-06	1.068922233065281e-06	-3.411590636484864e-07	1.478522819531808e-06	-7.014355184295465e-08
1.58	-0.3204825953613176	-0.03616336215700747	0.7696126423308688	1.159875739579983	-0.2556523755001083	-0.07447851503279426	-0.3130241353836242	0.8133359147869152	0.8133359147869156	-0.03011916118598257	0.1744808223462779	0.1678524707770994	0.03905174725334639	0.4737428467570861	0.2114355005198172	0.6508737806421063	-2.632472978854222	-0.07343971671052008	-0.4835807312263309	0.69280790412921	-2.724596930199268	-2.724596930199252	-0.4770515538130566	-0.003405679659064798	-0.7237764925659296	-0.2495200000118633	-0.1579845831823755	-0.008321513870174772	-0.009697667393947191	-0.2621276846275231	0.1277021367330505	0.02431701958189866	0.1622676693244049	6.319786771412199	-12.60577914267364	2.679106852469166	-11.1618839076774	-553.5851729982807	-63.06465171025888	-21.29044940357267	0.7220376878572528	0.8083793229130998	-1.330711033950174	-0.2685694718603717	0.1032515658391799	-0.8308822148776271	1.707537757778247	0.1636424745685798	0.1636424745685784	-0.2027559227533821	-0.2465741446336469	-0.4415181103420058	0.2487665294142238	-5.199264567818919e-07	4.081201139839909e-06	6.041194934542717e-06	1.056411621955844e-06	-3.777338602972353e-07	1.217615150456628e-06	-8.06441047606086e-08
